<svg width="1825" height="1825" viewBox="0 0 1825 1825" fill="none" xmlns="http://www.w3.org/2000/svg">
<rect width="1825" height="1825" fill="white"/>
<circle cx="913" cy="912" r="880" fill="#230000"/>
<path d="M1148.07 176.314C1156.19 176.037 1167.66 177.262 1178.02 184.902C1190.28 193.938 1194.49 206.992 1195.11 217.451C1195.91 230.825 1191.14 242.483 1186.06 251.181C1180.83 260.135 1173.66 268.721 1165.61 276.875L1165.43 277.059L1165.25 277.241C1111.81 329.731 1052.96 394.454 988.663 471.566L988.557 471.693L988.449 471.819C924.68 546.75 864.861 628.812 809.016 718.05C753.502 806.758 709.069 896.77 675.606 988.089L675.572 988.181L675.537 988.273C642.48 1076.84 628.782 1160.26 633.461 1238.86C635.219 1268.38 639.693 1295.78 646.76 1321.14C660.523 1271.41 679.388 1222.39 703.3 1174.09C740.936 1096.41 783.062 1027.12 829.782 966.372L829.847 966.287L829.913 966.204C862.104 924.913 902.608 886.022 951.005 849.397C999.425 811.221 1047.76 782.382 1096.04 763.571L1097.47 763.015L1098.95 762.593C1112.02 758.862 1125.09 755.13 1138.16 751.399C1153.19 747.107 1167.99 744.41 1182.48 743.547C1219.19 741.362 1253.73 748.995 1285.25 766.662C1320.33 784.799 1343.8 817.254 1358.1 858.274C1366.38 879.191 1371.01 902.172 1372.47 926.823C1375.29 974.072 1365.4 1021.9 1344.09 1069.89C1324.7 1115.1 1298.29 1158.08 1265.08 1198.84C1233.96 1238.74 1200.35 1275.79 1164.25 1309.97L1164.16 1310.05C1129.92 1342.22 1097.98 1369.32 1068.39 1391.17L1068.15 1391.34L1067.92 1391.51C1020.7 1425.08 965.418 1456.51 902.311 1485.93C850.57 1511.26 799.339 1527.1 748.768 1532.81C750.567 1538.41 752.123 1544.05 753.421 1549.73L753.852 1551.62C755.977 1556.84 756.808 1561.92 757.05 1565.99C757.894 1580.17 755.828 1594.04 750.664 1607.22C748.649 1614.82 745.105 1623.38 738.539 1630.77C730.273 1640.09 719.06 1645.44 706.791 1646.17C684.247 1647.51 669.566 1631.86 662.519 1622.54C654.307 1611.68 647.183 1597.25 640.711 1581.1L640.57 1580.75L640.435 1580.39C634.199 1563.72 629.99 1544.89 627.477 1524.22C567.681 1504.14 524.421 1462.59 499.397 1401.45L498.936 1400.33L498.562 1399.18C486.881 1363.29 479.906 1326.95 477.719 1290.22C473.322 1216.37 484.465 1138.59 510.339 1057.17L510.441 1056.86C537.425 974.82 574.146 892.485 620.463 809.858C666.467 727.79 717.121 648.442 772.419 571.822L772.438 571.793L772.46 571.764C828.96 493.84 885.286 423.213 941.453 359.934C998.301 295.889 1051 241.977 1099.51 198.396C1111.96 185.138 1128.13 177.482 1146.5 176.388L1148.07 176.314ZM1148.38 877.794C1130.93 878.833 1115.48 882.25 1101.78 887.743L1101.28 887.944L1100.77 888.126C1052.06 905.822 1006.08 934.954 962.863 976.285C918.929 1018.3 880.159 1066.42 846.576 1120.78C814.289 1175.33 788.559 1231.49 769.321 1289.29C754.552 1335.81 745.122 1380.15 740.835 1422.37C750.521 1423.89 760.584 1424.36 771.079 1423.73C807.926 1421.54 845.784 1409.76 884.894 1387.2L885.081 1387.09L885.265 1386.99C928.198 1362.97 963.168 1339.09 990.592 1315.49L991.131 1315.03L991.69 1314.59C1021.94 1290.76 1055.27 1257.86 1091.65 1215.34L1091.84 1215.11L1092.04 1214.89C1129.02 1173.23 1160.1 1128.49 1185.35 1080.66C1209.81 1032.74 1219.65 989.92 1217.36 951.565C1216.47 936.629 1213.83 923.775 1209.79 912.73L1209.53 912.014L1209.3 911.287C1204.17 894.95 1196.89 888.327 1189.5 885.166L1188.96 884.937L1188.43 884.686C1177.25 879.423 1164.16 876.855 1148.38 877.794Z" fill="#EBC174"/>
</svg>
